<svg xmlns="http://www.w3.org/2000/svg" width="960" height="300" viewBox="0 0 960 300" role="img" aria-label="Benchmark p90 summary">
<rect width="100%" height="100%" fill="#ffffff"/>
<line x1="60" y1="230.0" x2="930" y2="230.0" stroke="#e5e7eb" stroke-width="1"/>
<text x="52" y="234" text-anchor="end" font-size="11" fill="#4b5563">0.0s</text>
<line x1="60" y1="182.5" x2="930" y2="182.5" stroke="#e5e7eb" stroke-width="1"/>
<text x="52" y="186.5" text-anchor="end" font-size="11" fill="#4b5563">1.2s</text>
<line x1="60" y1="135.0" x2="930" y2="135.0" stroke="#e5e7eb" stroke-width="1"/>
<text x="52" y="139" text-anchor="end" font-size="11" fill="#4b5563">2.4s</text>
<line x1="60" y1="87.5" x2="930" y2="87.5" stroke="#e5e7eb" stroke-width="1"/>
<text x="52" y="91.5" text-anchor="end" font-size="11" fill="#4b5563">3.6s</text>
<line x1="60" y1="40.0" x2="930" y2="40.0" stroke="#e5e7eb" stroke-width="1"/>
<text x="52" y="44" text-anchor="end" font-size="11" fill="#4b5563">4.8s</text>
<text x="277.5" y="270" text-anchor="middle" font-size="12" fill="#111827">install</text>
<rect x="76.0" y="131.4" width="62.2" height="98.6" fill="#4C78A8" rx="2" ry="2"/>
<text x="107.1" y="125.4" text-anchor="middle" font-size="11" fill="#111827">2.5s</text>
<rect x="144.2" y="134.9" width="62.2" height="95.1" fill="#F58518" rx="2" ry="2"/>
<text x="175.3" y="128.9" text-anchor="middle" font-size="11" fill="#111827">2.4s</text>
<rect x="212.3" y="70.7" width="62.2" height="159.3" fill="#E45756" rx="2" ry="2"/>
<text x="243.4" y="64.7" text-anchor="middle" font-size="11" fill="#111827">4.1s</text>
<rect x="280.5" y="155.4" width="62.2" height="74.6" fill="#72B7B2" rx="2" ry="2"/>
<text x="311.6" y="149.4" text-anchor="middle" font-size="11" fill="#111827">1.9s</text>
<rect x="348.7" y="142.2" width="62.2" height="87.8" fill="#54A24B" rx="2" ry="2"/>
<text x="379.7" y="136.2" text-anchor="middle" font-size="11" fill="#111827">2.2s</text>
<rect x="416.8" y="165.0" width="62.2" height="65.0" fill="#B279A2" rx="2" ry="2"/>
<text x="447.9" y="159.0" text-anchor="middle" font-size="11" fill="#111827">1.7s</text>
<text x="712.5" y="270" text-anchor="middle" font-size="12" fill="#111827">ci</text>
<rect x="511.0" y="48.4" width="62.2" height="181.6" fill="#4C78A8" rx="2" ry="2"/>
<text x="542.1" y="52.0" text-anchor="middle" font-size="11" fill="#111827">4.6s</text>
<rect x="579.2" y="64.3" width="62.2" height="165.7" fill="#F58518" rx="2" ry="2"/>
<text x="610.3" y="58.3" text-anchor="middle" font-size="11" fill="#111827">4.2s</text>
<rect x="647.3" y="40.0" width="62.2" height="190.0" fill="#E45756" rx="2" ry="2"/>
<text x="678.4" y="52.0" text-anchor="middle" font-size="11" fill="#111827">4.8s</text>
<rect x="715.5" y="197.9" width="62.2" height="32.1" fill="#72B7B2" rx="2" ry="2"/>
<text x="746.6" y="191.9" text-anchor="middle" font-size="11" fill="#111827">0.8s</text>
<rect x="783.7" y="57.4" width="62.2" height="172.6" fill="#54A24B" rx="2" ry="2"/>
<text x="814.8" y="52.0" text-anchor="middle" font-size="11" fill="#111827">4.4s</text>
<rect x="851.8" y="79.2" width="62.2" height="150.8" fill="#B279A2" rx="2" ry="2"/>
<text x="882.9" y="73.2" text-anchor="middle" font-size="11" fill="#111827">3.8s</text>
<line x1="60" y1="40" x2="60" y2="230" stroke="#111827" stroke-width="1"/>
<line x1="60" y1="230" x2="930" y2="230" stroke="#111827" stroke-width="1"/>
<rect x="60" y="16" width="12" height="12" fill="#4C78A8" rx="2" ry="2"/>
<text x="78" y="27" font-size="12" fill="#111827">npm Node20</text>
<rect x="200" y="16" width="12" height="12" fill="#F58518" rx="2" ry="2"/>
<text x="218" y="27" font-size="12" fill="#111827">npm Node22</text>
<rect x="340" y="16" width="12" height="12" fill="#E45756" rx="2" ry="2"/>
<text x="358" y="27" font-size="12" fill="#111827">npm Node24</text>
<rect x="480" y="16" width="12" height="12" fill="#72B7B2" rx="2" ry="2"/>
<text x="498" y="27" font-size="12" fill="#111827">pnpm</text>
<rect x="620" y="16" width="12" height="12" fill="#54A24B" rx="2" ry="2"/>
<text x="638" y="27" font-size="12" fill="#111827">Yarn</text>
<rect x="760" y="16" width="12" height="12" fill="#B279A2" rx="2" ry="2"/>
<text x="778" y="27" font-size="12" fill="#111827">Yarn PnP</text>
<text x="60" y="288" font-size="11" fill="#6b7280">P90 median by action (seconds)</text>
</svg>