<svg xmlns="http://www.w3.org/2000/svg" width="960" height="300" viewBox="0 0 960 300">
<rect width="960" height="300" fill="white" />
<line x1="64" x2="936" y1="244.00" y2="244.00" stroke="#e5e7eb" stroke-width="1" />
<text x="56" y="248" text-anchor="end" font-size="11" fill="#6b7280">0.0</text>
<line x1="64" x2="936" y1="192.00" y2="192.00" stroke="#e5e7eb" stroke-width="1" />
<text x="56" y="196" text-anchor="end" font-size="11" fill="#6b7280">1.2</text>
<line x1="64" x2="936" y1="140.00" y2="140.00" stroke="#e5e7eb" stroke-width="1" />
<text x="56" y="144" text-anchor="end" font-size="11" fill="#6b7280">2.4</text>
<line x1="64" x2="936" y1="88.00" y2="88.00" stroke="#e5e7eb" stroke-width="1" />
<text x="56" y="92" text-anchor="end" font-size="11" fill="#6b7280">3.6</text>
<line x1="64" x2="936" y1="36.00" y2="36.00" stroke="#e5e7eb" stroke-width="1" />
<text x="56" y="40" text-anchor="end" font-size="11" fill="#6b7280">4.8</text>
<text x="282" y="272" text-anchor="middle" font-size="12" fill="#111827">install</text>
<rect x="96.00" y="136.11" width="57.00" height="107.89" rx="2" fill="#2563eb" />
<text x="124.50" y="130.11" text-anchor="middle" font-size="11" fill="#111827">2.5s</text>
<rect x="159.00" y="139.94" width="57.00" height="104.06" rx="2" fill="#0ea5e9" />
<text x="187.50" y="133.94" text-anchor="middle" font-size="11" fill="#111827">2.4s</text>
<rect x="222.00" y="69.60" width="57.00" height="174.40" rx="2" fill="#38bdf8" />
<text x="250.50" y="63.60" text-anchor="middle" font-size="11" fill="#111827">4.1s</text>
<rect x="285.00" y="162.29" width="57.00" height="81.71" rx="2" fill="#10b981" />
<text x="313.50" y="156.29" text-anchor="middle" font-size="11" fill="#111827">1.9s</text>
<rect x="348.00" y="147.93" width="57.00" height="96.07" rx="2" fill="#f97316" />
<text x="376.50" y="141.93" text-anchor="middle" font-size="11" fill="#111827">2.2s</text>
<rect x="411.00" y="172.87" width="57.00" height="71.13" rx="2" fill="#a855f7" />
<text x="439.50" y="166.87" text-anchor="middle" font-size="11" fill="#111827">1.7s</text>
<text x="718" y="272" text-anchor="middle" font-size="12" fill="#111827">ci</text>
<rect x="532.00" y="45.23" width="57.00" height="198.77" rx="2" fill="#2563eb" />
<text x="560.50" y="39.23" text-anchor="middle" font-size="11" fill="#111827">4.6s</text>
<rect x="595.00" y="62.59" width="57.00" height="181.41" rx="2" fill="#0ea5e9" />
<text x="623.50" y="56.59" text-anchor="middle" font-size="11" fill="#111827">4.2s</text>
<rect x="658.00" y="36.00" width="57.00" height="208.00" rx="2" fill="#38bdf8" />
<text x="686.50" y="30.00" text-anchor="middle" font-size="11" fill="#111827">4.8s</text>
<rect x="721.00" y="208.83" width="57.00" height="35.17" rx="2" fill="#10b981" />
<text x="749.50" y="202.83" text-anchor="middle" font-size="11" fill="#111827">0.8s</text>
<rect x="784.00" y="55.06" width="57.00" height="188.94" rx="2" fill="#f97316" />
<text x="812.50" y="49.06" text-anchor="middle" font-size="11" fill="#111827">4.4s</text>
<rect x="847.00" y="78.96" width="57.00" height="165.04" rx="2" fill="#a855f7" />
<text x="875.50" y="72.96" text-anchor="middle" font-size="11" fill="#111827">3.8s</text>
<rect x="64" y="12" width="12" height="12" fill="#2563eb" rx="2" />
<text x="82" y="23" font-size="11" fill="#111827">npm Node20</text>
<rect x="214" y="12" width="12" height="12" fill="#0ea5e9" rx="2" />
<text x="232" y="23" font-size="11" fill="#111827">npm Node22</text>
<rect x="364" y="12" width="12" height="12" fill="#38bdf8" rx="2" />
<text x="382" y="23" font-size="11" fill="#111827">npm Node24</text>
<rect x="514" y="12" width="12" height="12" fill="#10b981" rx="2" />
<text x="532" y="23" font-size="11" fill="#111827">pnpm</text>
<rect x="664" y="12" width="12" height="12" fill="#f97316" rx="2" />
<text x="682" y="23" font-size="11" fill="#111827">Yarn</text>
<rect x="814" y="12" width="12" height="12" fill="#a855f7" rx="2" />
<text x="832" y="23" font-size="11" fill="#111827">Yarn PnP</text>
</svg>